<svg width="146" height="139" viewBox="0 0 146 139" fill="none" xmlns="http://www.w3.org/2000/svg">
<g clip-path="url(#clip0_13_185)">
<path d="M113.1 85C113.767 85.5333 114.1 86.2333 114.1 87.1C114.1 87.9667 113.8 88.7 113.2 89.3H99L104.7 108.3C104.833 108.767 104.9 109.367 104.9 110.1C104.9 110.833 104.433 111.733 103.5 112.8C102.567 113.867 101.6 114.4 100.6 114.4C98.7333 114.4 97.2667 113.933 96.2 113L89.1 89.3H63.6L58.6 102.9C56.8667 107.5 54.3667 111.467 51.1 114.8C47.8333 118.133 43.6 119.8 38.4 119.8C34.4667 119.8 31.4 118.767 29.2 116.7C26.9333 114.633 25.8 111.633 25.8 107.7C25.8 103.767 26.7667 100.233 28.7 97.1C30.5667 93.9 33.0667 91.4 36.2 89.6C42.4667 86 49.4667 84.2 57.2 84.2L71.8 43C72.4667 41.0667 73.1667 39.6333 73.9 38.7C71.8333 31.7667 70.8 27.9667 70.8 27.3C70.8 26.5667 71.2667 25.7667 72.2 24.9C73.2 23.9667 74.2 23.5 75.2 23.5C77.1333 23.5 78.6333 23.9667 79.7 24.9L97.4 84.2L110.5 84.1C111.633 84.1 112.5 84.4 113.1 85ZM38.4 115.6C43.4 115.6 47.7333 110.567 51.4 100.5L55.3 89.4C47.9667 89.4 42.1333 91.1333 37.8 94.6C33.5333 98.0667 31.4 102.633 31.4 108.3C31.4 110.633 32.0333 112.433 33.3 113.7C34.6333 114.967 36.3333 115.6 38.4 115.6ZM77.7 46.4L65.5 84.2H87.5L77.7 46.4Z" fill="url(#paint0_linear_13_185)"/>
</g>
<defs>
<linearGradient id="paint0_linear_13_185" x1="21.9016" y1="-7" x2="157.878" y2="0.424762" gradientUnits="userSpaceOnUse">
<stop stop-color="#FF53B0"/>
<stop offset="1" stop-color="#8A38F2"/>
</linearGradient>
<clipPath id="clip0_13_185">
<rect width="146" height="139" fill="white"/>
</clipPath>
</defs>
</svg>
